<?xml version="1.0" encoding="UTF-8"?>
<svg width="48px" height="48px" viewBox="0 0 48 48" version="1.1" xmlns="http://www.w3.org/2000/svg" xmlns:xlink="http://www.w3.org/1999/xlink">
    <!-- Generator: Sketch 59 (86127) - https://sketch.com -->
    <title>designer</title>
    <desc>Created with Sketch.</desc>
    <g id="Website" stroke="none" stroke-width="1" fill="none" fill-rule="evenodd">
        <path d="M39.929103,44.0670766 L44.1327586,39.8645461 L45.3940804,45.3283983 L39.929103,44.0670766 Z M25.6247468,30.3331844 L24.0337487,28.7421863 L19.259629,23.9680666 L17.6686309,22.3770685 L7.81996972,12.5284073 L12.5929642,7.75428767 L22.4416253,17.6029488 L24.0337487,19.193947 L28.8067431,23.9680666 L30.3977413,25.5590648 L42.8264299,37.9877533 L38.0534354,42.761873 L25.6247468,30.3331844 Z M9.85316185,42.9216479 L6.08269875,44.5373999 L3.46329019,41.9179914 L5.08016738,38.1452779 L17.6675057,25.5590648 L22.4416253,30.3331844 L9.85316185,42.9216479 Z M3.03909902,7.74753662 C2.60703163,7.31434405 2.60815681,6.60098278 3.04585008,6.16216434 L6.22784639,2.98016802 C6.67004036,2.53909923 7.37665058,2.53797405 7.81321867,2.97341697 L11.001966,6.16216434 L6.22784639,10.936284 L3.03909902,7.74753662 Z M37.3940826,5.83361309 L42.1682022,10.6066076 L30.3977413,22.3770685 L25.6247468,17.6018236 L37.3940826,5.83361309 Z M43.3631386,2.2510543 C43.3665141,2.24880395 43.3575127,2.24880395 43.3665141,2.25780535 L45.7440099,4.63530118 C45.750761,4.64205224 45.750761,4.63755154 45.750761,4.63867671 L42.5665143,7.8217982 L40.1800171,5.43530097 L43.3631386,2.2510543 Z M46.0095514,37.9877533 L31.9898646,23.9680666 L41.3423234,14.6156079 L42.2188351,15.4932448 C42.6587787,15.9331884 42.6587787,16.6454245 42.2165847,17.0876184 L37.8013961,21.5016819 C37.3625776,21.9416255 37.3625776,22.6538616 37.8013961,23.0926801 C38.2413397,23.5326237 38.9535758,23.5326237 39.3923942,23.0926801 L43.8075829,18.6797418 C45.1285389,17.3587857 45.1296641,15.2209523 43.8109584,13.9022466 L42.9333215,13.0246097 L43.7592004,12.1976057 L45.3501985,10.6066076 L44.1575125,9.41392153 L47.3417591,6.22967487 C48.2250219,5.34416175 48.2160205,3.92531544 47.3350081,3.04317785 L44.9575123,0.665682022 C44.0674984,-0.224331798 42.6497773,-0.217580745 41.7721404,0.660056145 L38.5878938,3.84430281 L37.3940826,2.6504916 L35.8030844,4.24148976 L35.8019592,4.24148976 L35.8019592,4.24261494 L24.0337487,16.0108255 L9.40421683,1.38241882 C8.08663632,0.0659634808 5.95555392,0.0704641828 4.63684823,1.38916987 L1.45485192,4.57116618 C0.140646937,5.88537116 0.132770709,8.02432979 1.44810087,9.33853477 L4.63684823,12.5272821 L4.94064562,12.8310795 L6.22784639,14.1194055 L16.0765075,23.9680666 L3.18199631,36.8625778 L0.795499078,42.4321966 L2.38649723,44.0231947 L0,46.409692 L1.59099816,48.0006901 L3.97749539,45.6141929 L5.56961872,47.205191 L11.1392374,44.8186938 L24.0337487,31.9241826 L36.4613121,44.3528711 L38.0523102,45.9438693 L46.2030815,47.8251627 C47.404769,48.1019559 48.1698883,47.3480883 47.8897196,46.1373995 L46.0095514,37.9877533 Z" id="designer" fill="#7510F7"></path>
    </g>
</svg>