<?xml version="1.0" encoding="UTF-8"?>
<svg width="40px" height="48px" viewBox="0 0 40 48" version="1.1" xmlns="http://www.w3.org/2000/svg" xmlns:xlink="http://www.w3.org/1999/xlink">
    <!-- Generator: Sketch 59 (86127) - https://sketch.com -->
    <title>mentor</title>
    <desc>Created with Sketch.</desc>
    <g id="Website" stroke="none" stroke-width="1" fill="none" fill-rule="evenodd">
        <path d="M37.2,36 L4.7964,36 C3.9216,36 3.1092,36.2544 2.4,36.6684 L2.4,4.8 C2.4,3.4776 3.4776,2.4 4.7964,2.4 L37.2,2.4 L37.2,36 Z M37.2,40.8 L8.4,40.8 L8.4,43.2 L37.2,43.2 L37.2,45.6 L4.7964,45.6 C3.8952,45.6 3.1176,45.0912 2.7084,44.3532 C2.5188,44.0076 2.4,43.6152 2.4,43.188 L2.4,40.812 C2.4,39.4812 3.48,38.4 4.7964,38.4 L37.2,38.4 L37.2,40.8 Z M39.6,0 L39.6,48 L4.7964,48 C2.8812,48 1.242,46.872 0.474,45.2436 C0.1776,44.6208 0,43.9332 0,43.2 L0,43.2 L0,4.8 C0,2.1492 2.1576,0 4.7964,0 L4.7964,0 L39.6,0 Z M19.1652,9.942 L13.1652,13.542 C12.4428,13.9752 12,14.7576 12,15.6 L12,22.8 C12,23.6424 12.4428,24.4248 13.1652,24.858 L19.1652,28.458 C19.9248,28.914 20.8752,28.914 21.6348,28.458 L27.6348,24.858 C28.3572,24.4248 28.8,23.6424 28.8,22.8 L28.8,15.6 C28.8,14.7576 28.3572,13.9752 27.6348,13.542 L21.6348,9.942 C20.8752,9.486 19.9248,9.486 19.1652,9.942 Z M20.4,12 L26.4,15.6 L26.4,22.8 L20.4,26.4 L14.4,22.8 L14.4,15.6 L20.4,12 Z" id="mentor" fill="#7510F7"></path>
    </g>
</svg>